<?xml version="1.0" encoding="UTF-8" standalone="no"?>
<!-- Created with Inkscape (http://www.inkscape.org/) -->

<svg
   xmlns:dc="http://purl.org/dc/elements/1.1/"
   xmlns:cc="http://creativecommons.org/ns#"
   xmlns:rdf="http://www.w3.org/1999/02/22-rdf-syntax-ns#"
   xmlns:svg="http://www.w3.org/2000/svg"
   xmlns="http://www.w3.org/2000/svg"
   xmlns:sodipodi="http://sodipodi.sourceforge.net/DTD/sodipodi-0.dtd"
   xmlns:inkscape="http://www.inkscape.org/namespaces/inkscape"
   version="1.1"
   id="svg2"
   xml:space="preserve"
   width="632.58466"
   height="489.4801"
   viewBox="0 0 632.58465 489.4801"
   sodipodi:docname="eagle-eyes-trabalhado-branco.svg"
   inkscape:version="0.92.4 (5da689c313, 2019-01-14)"
   inkscape:export-filename="/home/usuario/Documents/icciber_docs/logo/eagle-eyes-trabalhado.svg.png"
   inkscape:export-xdpi="44.189503"
   inkscape:export-ydpi="44.189503"><metadata
     id="metadata8"><rdf:RDF><cc:Work
         rdf:about=""><dc:format>image/svg+xml</dc:format><dc:type
           rdf:resource="http://purl.org/dc/dcmitype/StillImage" /><dc:title /></cc:Work></rdf:RDF></metadata><defs
     id="defs6"><clipPath
       clipPathUnits="userSpaceOnUse"
       id="clipPath18"><path
         d="m 0,0 c 852.484,0 1704.98,0 2557.46,0 852.49,0 1704.98,0 2557.46,0 0,852.48 0,1704.97 0,2557.46 0,852.48 0,1704.97 0,2557.46 -852.48,0 -1704.97,0 -2557.46,0 -852.48,0 -1704.976,0 -2557.46,0 C 0,4262.43 0,3409.94 0,2557.46 0,1704.97 0,852.48 0,0"
         id="path16"
         inkscape:connector-curvature="0" /></clipPath><clipPath
       clipPathUnits="userSpaceOnUse"
       id="clipPath60"><path
         d="M 299.75,440.391 C 591.48,312.559 1499.42,223.719 2573.71,230.539 3648.07,237.332 4554.9,337.68 4844.87,469.23 c 63.32,28.719 97.26,58.942 97.05,90.02 -0.2,31.031 -34.49,60.84 -98.17,88.73 C 4552.08,775.852 3644.13,864.75 2569.71,857.922 1495.42,851.121 588.676,750.75 298.609,619.219 235.23,590.5 201.313,560.262 201.508,529.242 201.703,498.109 236,468.32 299.75,440.391 Z"
         id="path58"
         inkscape:connector-curvature="0" /></clipPath><clipPath
       clipPathUnits="userSpaceOnUse"
       id="clipPath66"><path
         d="M 299.75,440.391 C 591.48,312.559 1499.42,223.719 2573.71,230.539 3648.07,237.332 4554.9,337.68 4844.87,469.23 c 63.32,28.719 97.26,58.942 97.05,90.02 -0.2,31.031 -34.49,60.84 -98.17,88.73 C 4552.08,775.852 3644.13,864.75 2569.71,857.922 1495.42,851.121 588.676,750.75 298.609,619.219 235.23,590.5 201.313,560.262 201.508,529.242 201.703,498.109 236,468.32 299.75,440.391"
         id="path64"
         inkscape:connector-curvature="0" /></clipPath></defs><sodipodi:namedview
     pagecolor="#ffffff"
     bordercolor="#666666"
     borderopacity="1"
     objecttolerance="10"
     gridtolerance="10"
     guidetolerance="10"
     inkscape:pageopacity="0"
     inkscape:pageshadow="2"
     inkscape:window-width="1920"
     inkscape:window-height="1028"
     id="namedview4"
     showgrid="false"
     inkscape:zoom="0.69209562"
     inkscape:cx="-299.64246"
     inkscape:cy="239.46542"
     inkscape:window-x="0"
     inkscape:window-y="0"
     inkscape:window-maximized="1"
     inkscape:current-layer="layer6" /><g
     inkscape:groupmode="layer"
     id="layer6"
     inkscape:label="fundo"
     style="display:none"><rect
       style="fill:#ff00ff"
       id="rect65"
       width="764.34528"
       height="560.61615"
       x="-85.248337"
       y="-9.0059309" /><rect
       style="fill:#ffff00"
       id="rect77"
       width="998.41693"
       height="813.47144"
       x="-281.75296"
       y="-167.94351" /></g><g
     inkscape:groupmode="layer"
     id="layer5"
     inkscape:label="branco"
     style="display:inline"><ellipse
       style="fill:#ffffff"
       id="path67"
       cx="136.54182"
       cy="137.6501"
       rx="16.616201"
       ry="13.726427" /><ellipse
       style="fill:#ffffff;stroke-width:0.59761429"
       id="path81"
       cx="499.93094"
       cy="140.82143"
       rx="14.44887"
       ry="13.003983" /></g><g
     id="g10"
     inkscape:groupmode="layer"
     inkscape:label="aguia"
     transform="matrix(1.3333333,0,0,-1.3333333,-28.637107,568.74934)"
     style="display:inline"><g
       id="g12"
       transform="matrix(0.1,0,0,0.1,212.3984,99.69721)"><g
         id="g113"
         transform="matrix(0.96345439,0,0,0.95867367,71.108154,107.41413)"><path
           inkscape:connector-curvature="0"
           id="path98"
           style="fill:#000000;fill-opacity:1;fill-rule:nonzero;stroke:none"
           d="m 621.12596,1554.3281 c -9.65,-142.31 147.55,-190.27 173.26,-325.51 50.97,126.61 -26.72,312.35 -173.26,325.51 z m -358.96,-1.94 c -151.53,-10.29 -233.559998,-191.91 -171.739998,-333.47 -1.51,73.66 176.629998,191.92 171.739998,333.47 z m 177.91,-2019.86096 c -152.44,356.521 -283.22,916.051 -523.159998,1221.501 -186.000002,236.77 -604.880002,332.25996 -856.150002,499.44996 281.77,-26.87 563.55,-53.74 845.320002,-80.61 0,532.62 185.01,669.03 533.889998,1083.38 337.63,-393.95 535.44,-562.01 535.44,-1083.37 283.72004,27.06 567.45004,54.12 851.17004,81.18 -322.81,-181.73 -707.42,-313.06996 -911.32004,-613.61996 -214.12,-315.63 -316.77,-760.03 -475.19,-1107.911 -68.35,159.863 11.6,25.48 0,0" /><path
           inkscape:connector-curvature="0"
           id="path100"
           style="fill:#000000;fill-opacity:1;fill-rule:nonzero;stroke:none"
           d="m 1766.466,2236.3481 c 26.84,-60.36 115.38,-73.73 103.55,-2.33 -10.05,60.67 -74.05,60.05 -103.55,2.33 z m -598.37,-738.31 c 0,288.52 59.86,340.93 -143.24,475.74 105.47,127.41 574.66,312.51 719.29,413.01 442.43,307.46 417.04,289.56 399.04,816.84 154.23,-378.54 365.19,-477.39 670.32,-731.22 -572.46,-422.87 -784.38,-1156.32 -1645.41,-974.37 0,109.12 11.59,-2.45 0,0" /><path
           inkscape:connector-curvature="0"
           id="path102"
           style="fill:#ffc200;fill-opacity:1;fill-rule:nonzero;stroke:none"
           d="m 1353.826,1999.5281 c 51.34,35.68 100.93,70.13 155.16,107.81 33.64,-70.21 82.63,-127.42 161.96,-132.43 44.63,-2.82 97.14,8.54 135.09,31.61 108.49,65.96 123.04,193.56 44.39,336.76 52.66,36.61 105.7,73.48 161.26,112.12 107.05,-145.93 128.59,-300.73 59.71,-462.48 -65.61,-154.08 -187.4,-243.15 -355.9,-246.9 -156.3,-3.48 -296.32,93.47 -361.67,253.51" /><path
           inkscape:connector-curvature="0"
           id="path104"
           style="fill:#000000;fill-opacity:1;fill-rule:nonzero;stroke:none"
           d="m -987.38404,2234.0181 c -11.83,-71.4 76.71,-58.03 103.55,2.33 -29.5,57.72 -93.5,58.34 -103.55,-2.33 z m 701.92,-735.98 c -861.03196,-181.95 -1072.95396,551.5 -1645.41496,974.37 305.137,253.83 516.098,352.68 670.325,731.22 -18,-527.28 -43.391,-509.38 399.03996,-816.84 144.63,-100.5 613.82,-285.6 719.29,-413.01 -203.1,-134.81 -143.24,-187.22 -143.24,-475.74 -11.58,-2.45 0,109.12 0,0" /><path
           inkscape:connector-curvature="0"
           id="path106"
           style="fill:#ffc200;fill-opacity:1;fill-rule:nonzero;stroke:none"
           d="m -471.19404,1999.5281 c -51.34,35.68 -100.93,70.13 -155.16,107.81 -33.64,-70.21 -82.63,-127.42 -161.96,-132.43 -44.63,-2.82 -97.13,8.54 -135.09,31.61 -108.48996,65.96 -123.03996,193.56 -44.39,336.76 -52.65996,36.61 -105.69996,73.48 -161.25996,112.12 -107.051,-145.93 -128.59,-300.73 -59.711,-462.48 65.611,-154.08 187.401,-243.15 355.90096,-246.9 156.3,-3.48 296.32,93.47 361.67,253.51" /></g></g></g></svg>